<?xml version="1.0" encoding="UTF-8"?>
<svg width="10px" height="15px" viewBox="0 0 10 15" version="1.1" xmlns="http://www.w3.org/2000/svg" xmlns:xlink="http://www.w3.org/1999/xlink">
    <!-- Generator: Sketch 63.1 (92452) - https://sketch.com -->
    <title>@1x</title>
    <desc>Created with Sketch.</desc>
    <g id="Symbols" stroke="none" stroke-width="1" fill="none" fill-rule="evenodd" opacity="0.699869792">
        <g id="Product-Quantity/-Ski-/-In-Stock" transform="translate(-162.000000, -58.000000)" fill="#000000" fill-rule="nonzero">
            <path d="M166.571434,72.1428585 C167,72.1428585 167.410721,71.9017868 167.598221,71.5089292 L170.848225,64.5982067 C171.080368,64.1071346 171.142868,63.544634 171.142868,62.9999905 C171.142868,60.4732017 169.098223,58.4285564 166.571434,58.4285564 C164.044645,58.4285564 162,60.4732017 162,62.9999905 C162,63.544634 162.0625,64.1071346 162.294643,64.5982067 L165.553576,71.5089292 C165.732147,71.9017868 166.142862,72.1428585 166.571434,72.1428585 Z M166.571434,65.2857075 C165.312504,65.2857075 164.285717,64.2589205 164.285717,62.9999905 C164.285717,61.7410604 165.312504,60.7142735 166.571434,60.7142735 C167.830364,60.7142735 168.857151,61.7410604 168.857151,62.9999905 C168.857151,64.2589205 167.830364,65.2857075 166.571434,65.2857075 Z" id=""></path>
        </g>
    </g>
</svg>