<svg xmlns="http://www.w3.org/2000/svg" width="76" height="64" viewBox="0 0 76 64">
    <path d="M75.783 60.948L67.055 42.46c-.287-.607-.96-.84-1.502-.519-.543.321-.75 1.074-.464 1.681l8.445 17.891H43.927c-.035-.193-12.9-27.515-12.9-27.515l1.912-3.994 2.002 2.938c.337.495.85.793 1.405.817.555.026 1.088-.228 1.458-.692l4.822-6.038 9.372 12.382c.35.462.86.73 1.402.735h.016c.535 0 1.044-.257 1.397-.708l.011-.015 5.11-6.723 2.076 4.4c.287.608.96.84 1.502.519.543-.321.75-1.074.464-1.681L47.536 1.108C47.212.427 46.585.002 45.896 0h-.005c-.687 0-1.314.42-1.639 1.098L32.582 25.48l-.787 1.642-2.02 4.222-6.008-12.727c-.241-.51-.655-.877-1.137-1.03-.16-.05-.33-.078-.502-.078h-.005c-.023 0-.046.002-.068.003-.02 0-.038 0-.057.002l-.05.005c-.026.003-.051.005-.076.009-.023.003-.045.008-.067.013l-.056.01c-.534.123-1 .504-1.264 1.056l-4.069 8.5-6.843 14.296-.003.007L.223 60.938c-.312.65-.296 1.417.043 2.05.339.634.935 1.012 1.595 1.012h72.278c.657 0 1.253-.376 1.592-1.006.34-.63.359-1.395.052-2.046zM34.429 26.89L45.89 2.95 58.816 30.33l-5.399 7.104-9.365-12.374c-.347-.459-.855-.727-1.393-.735h-.025c-.529 0-1.033.252-1.386.694l-4.806 6.02-2.348-3.447.336-.703zM2.47 61.512l8.418-17.585 3.245 3.043c.35.328.774.489 1.195.489.51 0 1.017-.237 1.386-.7l3.722-4.668 2.397 2.662c.436.484 1.14.48 1.572-.007.432-.488.43-1.275-.006-1.76l-2.67-2.964c-.36-.4-.857-.619-1.366-.603-.507.018-.992.27-1.33.695l-3.743 4.694-3.33-3.12 10.162-21.229 13.113 27.78-3.166 3.264-2.896-3.215c-.435-.484-1.14-.481-1.572.007-.432.487-.43 1.275.007 1.759l3.143 3.49c.363.403.835.605 1.309.605.45 0 .902-.183 1.26-.552l2.99-3.084L41.5 61.512H2.47z"/>
</svg>
