<svg xmlns="http://www.w3.org/2000/svg" xmlns:xlink="http://www.w3.org/1999/xlink" width="67" height="82" viewBox="0 0 67 82">
    <defs>
        <path id="prefix__a" d="M0.538 0.486L21.952 0.486 21.952 6 0.538 6z"/>
        <path id="prefix__c" d="M0.001 0.49L66.102 0.49 66.102 70.758 0.001 70.758z"/>
    </defs>
    <g fill="none" fill-rule="evenodd">
        <g transform="translate(0 -1) translate(23 76.51)">
            <mask id="prefix__b" fill="#fff">
                <use xlink:href="#prefix__a"/>
            </mask>
            <path fill="#233434" d="M.538 2.908C3.42 4.595 6.365 5.63 9.248 5.912V6c.266 0 .535-.03.802-.044.267.013.536.044.802.044v-.088c3.686-.36 7.472-1.968 11.1-4.583C13.211-.536 5.712 1.007.538 2.91" mask="url(#prefix__b)"/>
        </g>
        <path fill="#233434" d="M32.345 70.136c-6.818-.313-12.574 1.243-16.63 2.884 1.85 1.974 3.787 3.675 5.773 5.067 2.87-1.167 6.557-2.297 10.857-2.804v-5.147z" transform="translate(0 -1)"/>
        <g transform="translate(0 -1) translate(0 .51)">
            <mask id="prefix__d" fill="#fff">
                <use xlink:href="#prefix__c"/>
            </mask>
            <path fill="#233434" d="M18.973 42.655c.396-3.089 1.957-4.514 3.23-5.167 2.5-1.281 6.127-.791 9.79 1.267.027-.102.072-.203.088-.306.168-1.06-.51-2.038.49-2.548 2.407-1.227 1.257 2.759 2.215 3.718.09.161.191.317.294.472.6-.563 1.514-1.195 2.683-1.241 1.294-.052 2.55.623 3.748 2.003 3.737-3.552 8.18-2.588 10.81-.099 2.86 2.708 3.968 7.344.552 10.965l-.726-.687c2.965-3.143 1.986-7.185-.514-9.552-2.455-2.322-6.431-3.08-9.796.461l-.399.421-.358-.458c-1.096-1.406-2.201-2.097-3.279-2.055-.906.035-1.637.575-2.102 1.032.827.923 1.892 1.626 3.1 1.868-.334 1.158-.596 2.337-.782 3.528l-3.472-2.91c-.57.639-.476 1.67-.014 2.392.46.723 1.203 1.208 1.925 1.67 1.752 1.125 3.502 2.249 5.255 3.373-.803 1.123-1.358 2.422-1.614 3.778-.261-.633-.688-1.196-1.226-1.619l-.68.65c-.004-.581-.318-1.15-.805-1.464l-.056-.82-1.319-.139c-.393-.703-.995-1.289-1.709-1.662-.486.898-.304 2.044.227 2.917.53.872 1.36 1.518 2.2 2.096 2.072 1.423 4.34 2.561 6.718 3.371-.814 1.075-1.26 2.421-1.252 3.768l-1.044-1.005-.726 1.272c-.255-.196-.434-.488-.494-.805l-.213 1.131c-.194-.374-.388-.747-.58-1.12.025.582-.075 1.168-.29 1.709-.454-1.277-1.151-2.467-2.044-3.488-.253.308-.766.262-1.074.011-.308-.25-.463-.64-.606-1.011-.957 1.005-.186 2.676.785 3.667 1.354 1.382 3.06 2.413 4.915 2.967-.47.498-.768 1.154-.837 1.835l-.68-1.176c-.047.637-.19 1.267-.428 1.86-.118-.348-.337-.661-.622-.891.023.394-.075.794-.277 1.132-.018-.601-.127-1.2-.324-1.769l-.188.96c-.92-.966-2.257-1.523-3.59-1.498.042.511.053 1.025.096 1.535v1.739c3.017.26 6.215.894 9.547 2.025 1.395-.5 2.944-.971 4.63-1.363v-4.984c.02-.237.024-.475.045-.713-.62-.011-1.241.248-1.668.696-.03-.149-.059-.297-.087-.446-.092.264-.144.542-.152.822-.093-.157-.139-.343-.129-.526-.131.107-.233.252-.288.414-.11-.275-.178-.568-.2-.864l-.316.547c-.03-.317-.17-.622-.388-.853.861-.258 1.654-.737 2.283-1.379.452-.46.81-1.237.367-1.704-.068.173-.14.354-.284.47-.143.116-.382.138-.498-.005-.414.474-.739 1.027-.95 1.62-.1-.251-.146-.523-.135-.794l-.268.521-.1-.526c-.027.147-.11.283-.23.374l-.337-.591c-.16.156-.323.311-.486.468.005-.627-.203-1.252-.58-1.751 1.105-.377 2.158-.906 3.12-1.567.392-.269.777-.569 1.024-.974.245-.406.33-.938.105-1.355-.333.173-.613.445-.794.772l-.613.065-.026.38c-.227.146-.373.411-.375.681l-.317-.302c-.248.196-.447.458-.568.752-.12-.63-.377-1.234-.75-1.756l2.442-1.566c.335-.216.68-.441.895-.777.215-.335.258-.814-.008-1.111-.536.451-1.075.901-1.612 1.351-.087-.552-.209-1.1-.364-1.638.797-.16 1.465-.746 1.864-1.455.466-.826.591-1.697.325-2.61.229.024.455.009.68.014.282.806-.19 1.899.508 2.596.398.709 1.066 1.295 1.864 1.455-.155.538-.276 1.086-.364 1.638l-1.613-1.351c-.265.297-.221.776-.007 1.111.215.336.56.561.896.777l2.442 1.566c-.373.522-.633 1.126-.752 1.756-.12-.294-.318-.556-.568-.752l-.316.302c-.002-.27-.148-.535-.375-.681l-.026-.38-.612-.065c-.182-.327-.462-.599-.794-.772-.227.417-.142.949.105 1.355.247.405.632.705 1.023.974.962.661 2.014 1.19 3.12 1.567-.377.499-.584 1.124-.58 1.751l-.486-.468-.337.591c-.12-.091-.203-.227-.23-.374-.032.175-.066.35-.1.526-.089-.174-.178-.347-.269-.521.012.271-.034.543-.135.794-.21-.593-.534-1.146-.948-1.62-.117.143-.355.121-.5.005-.143-.116-.215-.297-.281-.47-.445.467-.087 1.244.364 1.704.63.642 1.422 1.121 2.283 1.379-.218.231-.356.536-.389.853-.104-.183-.209-.365-.316-.547-.02.296-.087.589-.197.864-.056-.162-.157-.307-.29-.414.011.183-.035.369-.129.526-.008-.28-.06-.558-.15-.822-.03.149-.059.297-.087.446-.427-.448-1.048-.707-1.668-.696.02.238.025.476.044.713v4.82c1.517-.323 3.13-.58 4.837-.734 9.89-13.238 15.953-34.859 10.003-58.674-9.563 1.536-15.75-9.334-15.75-9.334H18.103s-6.189 10.87-15.75 9.334C-1.842 26.607-.064 42.297 4.81 54.737c.288-3.165 1.208-6.659 3.566-9.118 2.434-2.537 5.995-3.53 10.595-2.964" mask="url(#prefix__d)"/>
        </g>
        <path fill="#233434" d="M17.9 66.228c.02-.247.025-.495.046-.741-.645-.012-1.29.257-1.735.723l-.09-.463c-.096.274-.149.563-.158.854-.097-.164-.145-.357-.133-.547-.139.112-.244.262-.3.43-.116-.286-.186-.59-.208-.898l-.329.568c-.033-.328-.177-.645-.405-.885.897-.268 1.722-.766 2.376-1.433.47-.478.842-1.285.38-1.77-.069.18-.144.367-.294.488-.149.12-.397.143-.518-.005-.432.493-.769 1.067-.988 1.683-.105-.26-.153-.544-.14-.825-.094.18-.188.36-.28.54-.036-.181-.07-.363-.104-.545-.028.153-.115.294-.239.389l-.35-.614-.506.485c.005-.65-.212-1.3-.604-1.818 1.15-.392 2.245-.941 3.246-1.628.407-.28.808-.591 1.064-1.012.257-.421.345-.975.11-1.408-.346.18-.637.463-.826.803l-.638.067-.027.395c-.236.152-.387.427-.389.707l-.329-.313c-.26.204-.466.476-.592.78-.124-.653-.393-1.281-.78-1.823l2.54-1.627c.348-.224.708-.458.93-.807.223-.348.27-.846-.006-1.154l-1.678 1.404c-.09-.575-.217-1.144-.379-1.703.83-.166 1.524-.775 1.94-1.51.484-.86.614-1.764.338-2.712.237.026.472.01.706.015.294.837-.196 1.973.53 2.697.414.735 1.11 1.344 1.938 1.51-.16.559-.288 1.128-.378 1.703l-1.678-1.404c-.276.308-.23.806-.007 1.154.222.349.582.583.93.807l2.541 1.627c-.388.542-.657 1.17-.78 1.824-.127-.305-.333-.577-.593-.781-.109.104-.218.209-.329.313-.002-.28-.153-.555-.388-.707l-.028-.395-.638-.067c-.189-.34-.48-.622-.826-.803-.235.433-.146.987.111 1.408.255.42.656.733 1.063 1.012 1.001.687 2.097 1.236 3.247 1.628-.393.518-.609 1.168-.605 1.818l-.505-.485-.35.614c-.124-.095-.212-.236-.24-.39l-.103.547-.28-.541c.012.28-.036.565-.139.825-.22-.616-.558-1.19-.989-1.683-.122.148-.37.126-.519.005-.15-.121-.224-.308-.293-.488-.462.485-.09 1.292.38 1.77.653.667 1.48 1.165 2.375 1.433-.227.24-.37.557-.405.885-.109-.19-.218-.38-.329-.568-.02.308-.092.612-.206.898-.057-.168-.163-.318-.302-.43.012.19-.035.383-.133.547-.008-.291-.062-.58-.157-.854l-.09.463c-.445-.466-1.09-.735-1.736-.723.021.246.027.494.047.74v4.685c3.752-1.157 8.398-2.008 13.657-1.774v-1.633c.043-.511.054-1.025.097-1.535-1.334-.026-2.67.53-3.59 1.497l-.187-.96c-.198.569-.307 1.168-.325 1.77-.202-.34-.3-.738-.277-1.132-.286.23-.505.543-.622.89-.237-.593-.383-1.223-.428-1.86l-.68 1.177c-.069-.681-.367-1.337-.836-1.835 1.852-.555 3.56-1.586 4.914-2.968.97-.99 1.741-2.661.785-3.666-.143.37-.298.76-.607 1.01-.308.252-.822.297-1.074-.01-.89 1.02-1.589 2.21-2.044 3.488-.215-.541-.314-1.128-.29-1.71-.193.374-.385.747-.579 1.12l-.213-1.131c-.059.317-.239.61-.495.806l-.724-1.272-1.045 1.005c.008-1.347-.439-2.694-1.252-3.768 2.38-.811 4.645-1.948 6.716-3.372.842-.578 1.67-1.224 2.202-2.096.531-.872.713-2.02.226-2.916-.714.373-1.316.958-1.709 1.662l-1.319.139-.056.819c-.488.314-.8.883-.804 1.464-.228-.217-.455-.433-.68-.65-.539.424-.965.987-1.226 1.62-.257-1.357-.812-2.655-1.615-3.78l5.256-3.371c.722-.462 1.465-.948 1.926-1.67.461-.722.555-1.753-.016-2.392l-3.47 2.909c-.187-1.19-.449-2.37-.783-3.527 1.474-.296 3.248-1.563 4.094-3.064-3.364-1.916-6.767-2.43-8.954-1.308-1.627.834-2.55 2.477-2.746 4.882l-.043.532-.528-.077c-4.507-.66-7.955.212-10.242 2.595-2.68 2.793-3.34 7.188-3.38 10.649 2.52 5.79 5.718 10.789 9.275 14.77.887-.367 1.854-.734 2.903-1.08v-4.931zM33.974 75.127c.583-.045 1.177-.076 1.779-.095.93-.61 3.117-1.93 6.285-3.2-2.803-.86-5.5-1.358-8.063-1.585v4.88zM46.97 76.264c1.909-1.605 3.759-3.48 5.505-5.623-6.216.783-11.053 2.914-13.801 4.4 2.626.109 5.403.486 8.297 1.224" transform="translate(0 -1)"/>
        <path fill="#FEFEFE" d="M33.974 67.505c-.042-.511-.053-1.024-.096-1.535 1.334-.026 2.67.532 3.59 1.497.063-.32.124-.64.188-.96.197.569.306 1.168.324 1.77.202-.338.3-.738.277-1.132.285.23.504.543.622.89.238-.592.382-1.222.428-1.86l.68 1.177c.069-.681.366-1.337.837-1.835-1.855-.554-3.561-1.586-4.914-2.968-.971-.99-1.742-2.661-.786-3.666.142.37.297.76.606 1.01.309.252.822.298 1.075-.01.892 1.02 1.589 2.21 2.044 3.488.215-.541.314-1.128.29-1.71.191.374.386.747.578 1.12l.214-1.13c.06.316.239.609.495.805.24-.425.483-.848.724-1.272l1.046 1.005c-.01-1.347.438-2.694 1.252-3.768-2.38-.811-4.648-1.948-6.718-3.372-.841-.578-1.67-1.224-2.2-2.096-.532-.872-.715-2.02-.227-2.916.714.373 1.317.958 1.709 1.662l1.319.139.055.819c.487.314.801.884.805 1.464l.68-.65c.54.424.965.987 1.225 1.62.258-1.357.813-2.655 1.615-3.778l-5.255-3.373c-.722-.462-1.465-.948-1.925-1.67-.462-.722-.556-1.753.014-2.392l3.471 2.909c.188-1.19.449-2.37.782-3.527-1.208-.242-2.273-.945-3.1-1.868-.346.338-.55.633-.556.639l-.834-.551c.025-.037.304-.437.773-.88-.104-.153-.205-.31-.295-.47-.958-.96.191-4.945-2.215-3.72-1 .512-.322 1.49-.49 2.55-.017.103-.06.204-.087.306.175.098.349.18.523.286l-.516.856c-.128-.078-.257-.138-.386-.212-.846 1.5-2.62 2.768-4.095 3.064.335 1.158.596 2.337.782 3.527l3.471-2.91c.571.64.476 1.67.015 2.393-.46.722-1.204 1.208-1.925 1.67l-5.255 3.373c.802 1.123 1.357 2.42 1.614 3.778.261-.633.688-1.196 1.226-1.62l.68.65c.003-.58.317-1.15.805-1.464l.055-.82 1.32-.138c.393-.704.994-1.29 1.709-1.662.486.897.304 2.044-.228 2.916-.53.872-1.359 1.518-2.2 2.096-2.072 1.424-4.338 2.56-6.717 3.372.814 1.074 1.26 2.42 1.252 3.768l1.045-1.005.724 1.272c.256-.196.435-.49.495-.805l.213 1.13.58-1.12c-.024.582.075 1.169.29 1.71.454-1.277 1.151-2.467 2.044-3.488.252.308.765.262 1.073.01.31-.25.464-.64.607-1.01.956 1.005.184 2.676-.785 3.666-1.354 1.382-3.061 2.414-4.915 2.968.47.498.768 1.154.835 1.835.229-.392.456-.784.683-1.176.044.637.19 1.267.427 1.859.117-.347.336-.66.622-.89-.024.394.075.794.277 1.132.019-.602.128-1.201.325-1.77l.186.96c.921-.965 2.258-1.523 3.591-1.497-.043.51-.053 1.024-.097 1.535v1.633c.538.023 1.08.058 1.63.106v-1.74zM32.345 70.136v5.147c.533-.063 1.078-.114 1.63-.156v-4.88c-.55-.049-1.093-.086-1.63-.11M48.863 64.209c.62-.012 1.241.247 1.67.696.027-.15.057-.298.085-.446.092.264.143.542.151.822.094-.157.14-.343.13-.526.132.107.234.252.288.413.111-.275.178-.567.198-.864.107.182.212.365.317.547.032-.316.171-.621.39-.853-.863-.257-1.656-.737-2.285-1.378-.45-.461-.809-1.238-.365-1.704.067.172.14.353.282.469.144.117.382.138.5-.005.413.475.738 1.028.95 1.62.1-.25.145-.523.133-.793l.27.52.1-.525c.027.147.11.283.23.374l.336-.591.485.467c-.004-.626.203-1.252.581-1.751-1.105-.377-2.158-.905-3.12-1.567-.39-.268-.776-.57-1.023-.974-.246-.405-.33-.938-.106-1.355.332.174.613.446.794.773.205.02.41.043.613.064l.027.38c.226.147.372.41.374.68l.316-.301c.25.197.448.459.57.752.118-.63.377-1.233.75-1.755l-2.443-1.567c-.335-.215-.68-.44-.894-.776-.215-.336-.259-.815.007-1.112l1.612 1.352c.088-.553.21-1.101.364-1.64-.798-.16-1.466-.745-1.864-1.453-.697-.697-.226-1.79-.509-2.596-.225-.005-.45.01-.679-.015.266.913.141 1.785-.325 2.61-.398.709-1.066 1.295-1.864 1.455.155.538.277 1.086.363 1.639l1.613-1.352c.266.297.222.776.007 1.112-.214.336-.559.56-.894.776l-2.443 1.567c.373.522.631 1.125.751 1.755.121-.293.32-.555.57-.752l.315.302c.002-.27.148-.534.374-.68l.027-.381.613-.064c.181-.327.462-.6.794-.773.225.417.14.95-.106 1.355-.247.405-.632.706-1.022.974-.963.662-2.017 1.19-3.12 1.567.377.499.584 1.125.58 1.75l.485-.466.337.59c.12-.09.203-.226.231-.373l.098.525.27-.52c-.012.27.034.543.134.794.211-.593.536-1.146.95-1.621.117.143.355.122.5.005.142-.116.215-.297.281-.47.444.467.086 1.244-.365 1.705-.629.64-1.422 1.12-2.284 1.378.218.232.357.537.388.853l.317-.547c.021.297.088.589.2.864.053-.161.155-.306.288-.413-.01.183.035.369.13.526.007-.28.058-.558.15-.822l.086.446c.428-.45 1.05-.708 1.67-.696-.02.237-.026.476-.046.713v4.983c.248-.057.504-.11.757-.164v-4.82c-.02-.236-.024-.475-.045-.712M18.64 65.487c.646-.012 1.291.256 1.735.723.032-.155.061-.309.091-.464.095.275.15.564.156.854.1-.163.146-.356.134-.546.14.111.244.262.302.43.114-.287.186-.59.207-.898l.328.568c.034-.329.178-.646.404-.886-.895-.267-1.72-.765-2.375-1.432-.468-.478-.84-1.285-.378-1.77.069.18.143.367.293.488.149.121.396.143.518-.005.431.493.768 1.067.989 1.683.104-.26.151-.544.14-.825.093.181.185.361.28.541l.103-.546c.027.153.116.294.238.39.117-.206.233-.41.352-.616l.505.486c-.005-.65.21-1.3.605-1.819-1.15-.39-2.247-.94-3.247-1.627-.407-.279-.808-.59-1.064-1.012-.256-.42-.346-.975-.11-1.408.346.18.637.463.826.802l.637.068.027.395c.237.152.388.426.39.707l.329-.314c.26.204.465.476.591.782.124-.655.392-1.282.781-1.824l-2.54-1.628c-.35-.223-.709-.457-.931-.806-.223-.348-.268-.846.008-1.155.559.47 1.117.936 1.678 1.405.09-.575.216-1.144.378-1.703-.83-.166-1.526-.775-1.94-1.51-.724-.724-.234-1.86-.528-2.697-.235-.005-.47.01-.706-.015.274.948.145 1.853-.34 2.711-.415.736-1.108 1.345-1.938 1.511.162.56.287 1.128.379 1.703.558-.469 1.117-.936 1.677-1.405.276.31.23.807.007 1.155-.223.35-.582.583-.93.806l-2.54 1.628c.386.542.655 1.17.78 1.824.125-.306.332-.578.591-.782l.33.314c.002-.28.153-.555.388-.707l.027-.395.637-.068c.19-.339.481-.622.827-.802.236.433.148.987-.11 1.408-.256.421-.657.733-1.064 1.012-1 .687-2.097 1.236-3.245 1.627.392.52.609 1.168.604 1.82l.505-.487.35.615c.124-.095.211-.236.24-.389l.102.546c.094-.18.188-.36.28-.54-.011.28.037.563.14.824.22-.616.558-1.19.99-1.683.12.148.368.126.517.005.15-.12.226-.309.293-.488.463.485.09 1.292-.378 1.77-.654.667-1.48 1.165-2.377 1.432.229.24.372.557.405.886l.33-.568c.021.308.09.611.207.898.056-.168.162-.319.3-.43-.011.19.037.383.133.546.01-.29.063-.579.158-.854l.09.464c.446-.467 1.09-.735 1.736-.723-.021.246-.026.494-.047.741v4.931c.256-.085.523-.166.788-.248v-4.683c-.021-.247-.026-.495-.047-.74" transform="translate(0 -1)"/>
        <path fill="#FEFEFE" d="M36.137 76.582l-.893-1.205c.016-.012.194-.139.509-.345-.602.02-1.196.05-1.778.094v.79c-.718 0 .13.017-.585.062-.074.005-.154 0-.231-.014-.076.013-.155.02-.23.014-.715-.045.133-.063-.584-.063v-.632c-4.3.507-7.987 1.636-10.857 2.803.679.477 1.362.93 2.05 1.332 5.174-1.9 12.673-3.444 21.414-1.578.68-.49 1.353-1.015 2.019-1.576-2.894-.738-5.671-1.115-8.297-1.223-1.602.867-2.501 1.515-2.537 1.541" transform="translate(0 -1)"/>
        <path fill="#FEFEFE" d="M32.345 75.916c.717 0-.131.018.584.062.075.005.154-.001.23-.014.077.013.157.019.23.014.717-.044-.132-.062.586-.062v-.79c-.552.043-1.097.095-1.63.158v.632zM48.908 69.741v.483c-.333 0 .062.008-.27.03-.036.002-.073 0-.108-.007-.036.006-.072.01-.107.006-.333-.02.061-.029-.272-.029v-.319c-1.685.392-3.234.863-4.63 1.363.298.102.596.195.898.305l-.342.94c-.687-.25-1.365-.474-2.04-.68-3.166 1.268-5.355 2.59-6.284 3.2.951-.032 1.924-.033 2.921.008 2.748-1.486 7.585-3.617 13.8-4.399.43-.529.854-1.075 1.271-1.634-1.707.153-3.32.41-4.837.733" transform="translate(0 -1)"/>
        <path fill="#FEFEFE" d="M48.151 70.225c.333 0-.062.008.271.029.036.001.072-.002.108-.008.035.007.072.01.106.008.333-.022-.06-.03.272-.03v-.483c-.253.055-.509.106-.757.165v.319zM36.137 76.582c.036-.026.935-.674 2.537-1.54-.997-.042-1.97-.042-2.921-.01-.315.206-.493.333-.51.345l.894 1.205zM33.974 70.246c2.564.228 5.26.726 8.064 1.585.473-.189.965-.378 1.483-.563-3.333-1.13-6.53-1.765-9.547-2.025v1.003zM32.345 70.136v-.999c-5.26-.233-9.905.618-13.657 1.774v.825c-.347 0 .063.008-.282.03-.037.002-.076 0-.112-.007-.037.006-.075.01-.111.007-.347-.022.063-.03-.283-.03v-.577c-1.05.346-2.016.712-2.904 1.081.238.266.478.522.719.78 4.056-1.64 9.812-3.197 16.63-2.884" transform="translate(0 -1)"/>
        <path fill="#FEFEFE" d="M33.974 69.243c-.55-.046-1.092-.082-1.63-.105v.998c.538.025 1.08.062 1.63.11v-1.002zM17.9 71.736c.346 0-.064.008.282.03.036.003.074 0 .112-.007.036.007.075.01.111.007.346-.022-.065-.03.282-.03v-.824c-.265.082-.532.163-.788.247v.577zM44.077 72.512l.342-.939c-.302-.11-.6-.203-.899-.305-.517.185-1.009.374-1.483.564.675.207 1.353.43 2.04.68M37.802 40.36c1.077-.042 2.183.648 3.279 2.055l.358.457.399-.421c3.364-3.54 7.34-2.782 9.795-.461 2.5 2.368 3.48 6.41.514 9.553l.726.687c3.417-3.621 2.308-8.257-.552-10.966-2.63-2.488-7.072-3.453-10.81.1-1.197-1.38-2.454-2.055-3.748-2.003-1.168.045-2.083.677-2.682 1.24.187.278.394.54.617.79.467-.457 1.198-.996 2.104-1.031" transform="translate(0 -1)"/>
        <path fill="#FEFEFE" d="M34.309 41.48l.834.551c.005-.007.21-.302.556-.64-.224-.249-.431-.513-.618-.79-.469.441-.748.841-.773.878M19.344 44.224l.527.079.043-.532c.196-2.407 1.119-4.049 2.746-4.883 2.188-1.121 5.59-.607 8.955 1.308.169-.303.296-.614.379-.93-3.664-2.058-7.291-2.548-9.79-1.268-1.274.654-2.834 2.079-3.231 5.168-4.6-.566-8.161.427-10.595 2.964-2.358 2.459-3.278 5.953-3.566 9.116.294.752.594 1.496.909 2.222.04-3.46.699-7.855 3.38-10.649 2.288-2.382 5.735-3.255 10.243-2.595" transform="translate(0 -1)"/>
        <path fill="#FEFEFE" d="M32.517 39.552c-.175-.105-.349-.188-.523-.286-.082.316-.21.627-.38.93.13.074.258.134.387.212l.517-.856zM20.613 19.792c1.258 0 2.016-.444 2.016-1.406v-.036c0-.87-.648-1.406-2.109-1.406h-3.292v2.848h3.385zm-.758-5.215c1.257 0 2.053-.407 2.053-1.37v-.036c0-.851-.666-1.331-1.868-1.331h-2.812v2.737h2.627zm-5.4-5.234h6.01c1.48 0 2.644.407 3.384 1.147.592.592.888 1.313.888 2.2v.038c0 1.46-.776 2.274-1.7 2.792 1.497.573 2.422 1.442 2.422 3.18v.038c0 2.367-1.924 3.55-4.846 3.55h-6.158V9.344z" transform="translate(0 -1)"/>
        <path stroke="#FEFEFE" d="M20.613 19.792c1.258 0 2.016-.444 2.016-1.406v-.036c0-.87-.648-1.406-2.109-1.406h-3.292v2.848h3.385zm-.758-5.215c1.257 0 2.053-.407 2.053-1.37v-.036c0-.851-.666-1.331-1.868-1.331h-2.812v2.737h2.627zm-5.4-5.234h6.01c1.48 0 2.644.407 3.384 1.147.592.592.888 1.313.888 2.2v.038c0 1.46-.776 2.274-1.7 2.792 1.497.573 2.422 1.442 2.422 3.18v.038c0 2.367-1.924 3.55-4.846 3.55h-6.158V9.344z" transform="translate(0 -1)"/>
        <path fill="#FEFEFE" d="M27.24 15.852v-.037c0-3.68 2.772-6.694 6.75-6.694 2.44 0 3.901.813 5.103 1.997l-1.812 2.09c-.999-.907-2.016-1.46-3.31-1.46-2.183 0-3.754 1.811-3.754 4.03v.037c0 2.22 1.534 4.07 3.753 4.07 1.48 0 2.386-.593 3.403-1.517l1.812 1.83c-1.33 1.425-2.81 2.312-5.307 2.312-3.81 0-6.639-2.94-6.639-6.658" transform="translate(0 -1)"/>
        <path stroke="#FEFEFE" d="M27.24 15.852v-.037c0-3.68 2.772-6.694 6.75-6.694 2.44 0 3.901.813 5.103 1.997l-1.812 2.09c-.999-.907-2.016-1.46-3.31-1.46-2.183 0-3.754 1.811-3.754 4.03v.037c0 2.22 1.534 4.07 3.753 4.07 1.48 0 2.386-.593 3.403-1.517l1.812 1.83c-1.33 1.425-2.81 2.312-5.307 2.312-3.81 0-6.639-2.94-6.639-6.658z" transform="translate(0 -1)"/>
        <path fill="#FEFEFE" d="M41.466 9.343L44.314 9.343 44.314 15.002 49.566 9.343 53.006 9.343 47.736 14.836 53.246 22.289 49.824 22.289 45.812 16.778 44.314 18.331 44.314 22.289 41.466 22.289z" transform="translate(0 -1)"/>
        <path stroke="#FEFEFE" d="M41.466 9.343L44.314 9.343 44.314 15.002 49.566 9.343 53.006 9.343 47.736 14.836 53.246 22.289 49.824 22.289 45.812 16.778 44.314 18.331 44.314 22.289 41.466 22.289z" transform="translate(0 -1)"/>
        <path fill="#FEFEFE" d="M7.059 29.792v-.028c0-2.782 2.096-5.06 5.102-5.06 1.844 0 2.949.615 3.856 1.51l-1.37 1.579c-.755-.685-1.524-1.104-2.502-1.104-1.649 0-2.836 1.37-2.836 3.047v.028c0 1.677 1.16 3.075 2.837 3.075 1.117 0 1.803-.447 2.571-1.147l1.37 1.384c-1.006 1.076-2.124 1.747-4.01 1.747-2.88 0-5.018-2.222-5.018-5.031M19.204 24.872L21.189 24.872 25.773 30.896 25.773 24.872 27.898 24.872 27.898 34.656 26.067 34.656 21.329 28.436 21.329 34.656 19.204 34.656zM33.923 26.856L30.946 26.856 30.946 24.872 39.053 24.872 39.053 26.856 36.075 26.856 36.075 34.655 33.923 34.655zM46.432 29.624c1.05 0 1.65-.56 1.65-1.384v-.028c0-.922-.642-1.398-1.691-1.398h-2.14v2.81h2.181zM42.1 24.872h4.474c1.243 0 2.209.349 2.85.992.545.545.84 1.314.84 2.237v.027c0 1.58-.852 2.572-2.097 3.034l2.39 3.494h-2.517l-2.096-3.131H44.252v3.13h-2.153v-9.783zM56.009 30.798L52.249 24.872 54.765 24.872 57.099 28.799 59.475 24.872 61.921 24.872 58.161 30.756 58.161 34.656 56.009 34.656z" transform="translate(0 -1)"/>
    </g>
</svg>
