<?xml version="1.0" encoding="UTF-8"?>
<svg width="62px" height="85px" viewBox="0 0 62 85" version="1.1" xmlns="http://www.w3.org/2000/svg" xmlns:xlink="http://www.w3.org/1999/xlink">
    <title>icon womens purple 3</title>
    <defs>
        <polygon id="path-1" points="0 0.679 61.359 0.679 61.359 83 0 83"></polygon>
    </defs>
    <g id="Icons-and-style-elements" stroke="none" stroke-width="1" fill="none" fill-rule="evenodd">
        <g id="Icons-&amp;-Style-Elements" transform="translate(-1065.000000, -82.000000)">
            <g id="icon-womens-purple-3" transform="translate(1065.000000, 82.000000)">
                <g id="Group-3" transform="translate(0.000000, 0.321000)">
                    <mask id="mask-2" fill="white">
                        <use xlink:href="#path-1"></use>
                    </mask>
                    <g id="Clip-2"></g>
                    <path d="M52.9716,0.679 C56.8016,0.679 61.3596,4.673 61.3596,10.43 L61.3596,50.484 C61.3596,58.723 57.1096,83 30.6796,83 C4.2496,83 -0.0004,58.626 -0.0004,49.233 L-0.0004,12.317 C-0.0004,5.574 4.9536,0.679 8.3876,0.679 L52.9716,0.679 Z" id="Fill-1" fill="#57247E" mask="url(#mask-2)"></path>
                </g>
                <polygon id="Fill-4" fill="#FEFEFE" points="5.621 8.8706 7.026 8.8706 8.261 12.9066 9.597 8.8536 10.721 8.8536 12.058 12.9066 13.292 8.8706 14.663 8.8706 12.628 14.8726 11.488 14.8726 10.142 10.9736 8.797 14.8726 7.656 14.8726"></polygon>
                <polygon id="Stroke-6" stroke="#FCFDFD" stroke-width="0.427" points="5.621 8.8706 7.026 8.8706 8.261 12.9066 9.597 8.8536 10.721 8.8536 12.058 12.9066 13.292 8.8706 14.663 8.8706 12.628 14.8726 11.488 14.8726 10.142 10.9736 8.797 14.8726 7.656 14.8726"></polygon>
                <path d="M21.1,11.8676 L21.1,11.8506 C21.1,10.8286 20.351,9.9776 19.295,9.9776 C18.239,9.9776 17.507,10.8116 17.507,11.8336 L17.507,11.8506 C17.507,12.8716 18.256,13.7236 19.312,13.7236 C20.368,13.7236 21.1,12.8886 21.1,11.8676 M16.136,11.8676 L16.136,11.8506 C16.136,10.1566 17.473,8.7686 19.312,8.7686 C21.151,8.7686 22.471,10.1386 22.471,11.8336 L22.471,11.8506 C22.471,13.5446 21.134,14.9326 19.295,14.9326 C17.456,14.9326 16.136,13.5616 16.136,11.8676" id="Fill-8" fill="#FEFEFE"></path>
                <path d="M21.1,11.8676 L21.1,11.8506 C21.1,10.8286 20.351,9.9776 19.295,9.9776 C18.239,9.9776 17.507,10.8116 17.507,11.8336 L17.507,11.8506 C17.507,12.8716 18.256,13.7236 19.312,13.7236 C20.368,13.7236 21.1,12.8886 21.1,11.8676 Z M16.136,11.8676 L16.136,11.8506 C16.136,10.1566 17.473,8.7686 19.312,8.7686 C21.151,8.7686 22.471,10.1386 22.471,11.8336 L22.471,11.8506 C22.471,13.5446 21.134,14.9326 19.295,14.9326 C17.456,14.9326 16.136,13.5616 16.136,11.8676 Z" id="Stroke-10" stroke="#FCFDFD" stroke-width="0.427"></path>
                <polygon id="Fill-12" fill="#FEFEFE" points="24.745 8.8706 26.158 8.8706 27.725 11.3906 29.291 8.8706 30.705 8.8706 30.705 14.8306 29.402 14.8306 29.402 10.9396 27.725 13.4856 27.691 13.4856 26.031 10.9646 26.031 14.8306 24.745 14.8306"></polygon>
                <polygon id="Stroke-14" stroke="#FCFDFD" stroke-width="0.427" points="24.745 8.8706 26.158 8.8706 27.725 11.3906 29.291 8.8706 30.705 8.8706 30.705 14.8306 29.402 14.8306 29.402 10.9396 27.725 13.4856 27.691 13.4856 26.031 10.9646 26.031 14.8306 24.745 14.8306"></polygon>
                <polygon id="Fill-16" fill="#FEFEFE" points="33.2426 8.8706 37.7386 8.8706 37.7386 10.0376 34.5456 10.0376 34.5456 11.2456 37.3546 11.2456 37.3546 12.4126 34.5456 12.4126 34.5456 13.6636 37.7806 13.6636 37.7806 14.8306 33.2426 14.8306"></polygon>
                <polygon id="Stroke-18" stroke="#FCFDFD" stroke-width="0.427" points="33.2426 8.8706 37.7386 8.8706 37.7386 10.0376 34.5456 10.0376 34.5456 11.2456 37.3546 11.2456 37.3546 12.4126 34.5456 12.4126 34.5456 13.6636 37.7806 13.6636 37.7806 14.8306 33.2426 14.8306"></polygon>
                <polygon id="Fill-20" fill="#FEFEFE" points="40.0541 8.8706 41.2631 8.8706 44.0551 12.5396 44.0551 8.8706 45.3501 8.8706 45.3501 14.8306 44.2351 14.8306 41.3481 11.0416 41.3481 14.8306 40.0541 14.8306"></polygon>
                <polygon id="Stroke-22" stroke="#FCFDFD" stroke-width="0.427" points="40.0541 8.8706 41.2631 8.8706 44.0551 12.5396 44.0551 8.8706 45.3501 8.8706 45.3501 14.8306 44.2351 14.8306 41.3481 11.0416 41.3481 14.8306 40.0541 14.8306"></polygon>
                <path d="M47.4364,11.0756 C48.0234,11.0156 48.3134,10.7186 48.2704,10.2326 L47.7424,10.2326 L47.7424,8.8706 L49.1224,8.8706 L49.1224,10.0196 C49.1224,11.1436 48.5604,11.5956 47.5464,11.6126 L47.4364,11.0756 Z" id="Fill-24" fill="#FEFEFE"></path>
                <path d="M47.4364,11.0756 C48.0234,11.0156 48.3134,10.7186 48.2704,10.2326 L47.7424,10.2326 L47.7424,8.8706 L49.1224,8.8706 L49.1224,10.0196 C49.1224,11.1436 48.5604,11.5956 47.5464,11.6126 L47.4364,11.0756 Z" id="Stroke-26" stroke="#FCFDFD" stroke-width="0.427"></path>
                <path d="M51.0214,13.9619 L51.7964,13.0339 C52.3324,13.4769 52.8944,13.7579 53.5754,13.7579 C54.1124,13.7579 54.4354,13.5449 54.4354,13.1959 L54.4354,13.1789 C54.4354,12.8469 54.2314,12.6759 53.2344,12.4209 C52.0344,12.1139 51.2594,11.7819 51.2594,10.5989 L51.2594,10.5819 C51.2594,9.5009 52.1284,8.7849 53.3454,8.7849 C54.2144,8.7849 54.9554,9.0579 55.5594,9.5429 L54.8784,10.5309 C54.3504,10.1649 53.8314,9.9429 53.3284,9.9429 C52.8264,9.9429 52.5624,10.1729 52.5624,10.4629 L52.5624,10.4799 C52.5624,10.8719 52.8174,10.9989 53.8484,11.2629 C55.0574,11.5779 55.7384,12.0119 55.7384,13.0509 L55.7384,13.0679 C55.7384,14.2519 54.8354,14.9159 53.5504,14.9159 C52.6474,14.9159 51.7364,14.6009 51.0214,13.9619" id="Fill-28" fill="#FEFEFE"></path>
                <path d="M51.0214,13.9619 L51.7964,13.0339 C52.3324,13.4769 52.8944,13.7579 53.5754,13.7579 C54.1124,13.7579 54.4354,13.5449 54.4354,13.1959 L54.4354,13.1789 C54.4354,12.8469 54.2314,12.6759 53.2344,12.4209 C52.0344,12.1139 51.2594,11.7819 51.2594,10.5989 L51.2594,10.5819 C51.2594,9.5009 52.1284,8.7849 53.3454,8.7849 C54.2144,8.7849 54.9554,9.0579 55.5594,9.5429 L54.8784,10.5309 C54.3504,10.1649 53.8314,9.9429 53.3284,9.9429 C52.8264,9.9429 52.5624,10.1729 52.5624,10.4629 L52.5624,10.4799 C52.5624,10.8719 52.8174,10.9989 53.8484,11.2629 C55.0574,11.5779 55.7384,12.0119 55.7384,13.0509 L55.7384,13.0679 C55.7384,14.2519 54.8354,14.9159 53.5504,14.9159 C52.6474,14.9159 51.7364,14.6009 51.0214,13.9619 Z" id="Stroke-30" stroke="#FCFDFD" stroke-width="0.427"></path>
                <line x1="19.7108" y1="62.2119" x2="41.6478" y2="62.2119" id="Stroke-32" stroke="#FEFEFE" stroke-width="3" stroke-linecap="round"></line>
                <path d="M30.6796,24.0556 C22.6156,24.0556 16.0546,30.6166 16.0546,38.6806 C16.0546,46.7446 22.6156,53.3056 30.6796,53.3056 C38.7436,53.3056 45.3046,46.7446 45.3046,38.6806 C45.3046,30.6166 38.7436,24.0556 30.6796,24.0556 M30.6796,56.3056 C20.9616,56.3056 13.0546,48.3996 13.0546,38.6806 C13.0546,28.9626 20.9616,21.0556 30.6796,21.0556 C40.3976,21.0556 48.3046,28.9626 48.3046,38.6806 C48.3046,48.3996 40.3976,56.3056 30.6796,56.3056" id="Fill-34" fill="#FEFEFE"></path>
                <path d="M30.6796,74.3994 C29.8506,74.3994 29.1796,73.7274 29.1796,72.8994 L29.1796,54.8054 C29.1796,53.9774 29.8506,53.3054 30.6796,53.3054 C31.5086,53.3054 32.1796,53.9774 32.1796,54.8054 L32.1796,72.8994 C32.1796,73.7274 31.5086,74.3994 30.6796,74.3994" id="Fill-36" fill="#FEFEFE"></path>
                <path d="M19.1786,51.6953 C19.0076,51.6953 18.8336,51.6523 18.6746,51.5603 C18.1886,51.2823 18.0206,50.6613 18.2996,50.1753 L30.1406,29.5463 C30.3256,29.2233 30.6716,29.0383 31.0466,29.0373 C31.4196,29.0473 31.7576,29.2603 31.9256,29.5933 L42.0226,49.5183 C42.2756,50.0183 42.0756,50.6303 41.5756,50.8833 C41.0746,51.1353 40.4646,50.9353 40.2116,50.4363 L30.9646,32.1873 L20.0596,51.1853 C19.8716,51.5123 19.5306,51.6953 19.1786,51.6953" id="Fill-38" fill="#FEFEFE"></path>
                <path d="M31.89,43.7011 C31.764,43.7011 31.638,43.6781 31.518,43.6311 L28.541,42.4581 L24.307,43.4601 C23.763,43.5871 23.214,43.2521 23.086,42.7061 C22.956,42.1611 23.294,41.6141 23.839,41.4851 L28.383,40.4101 C28.585,40.3611 28.796,40.3771 28.988,40.4531 L31.902,41.6001 L35.423,40.3061 C35.946,40.1091 36.532,40.3831 36.726,40.9081 C36.919,41.4341 36.649,42.0171 36.123,42.2111 L32.24,43.6391 C32.127,43.6801 32.009,43.7011 31.89,43.7011" id="Fill-40" fill="#FEFEFE"></path>
                <path d="M45.6166,41.9921 C45.3926,41.9921 45.1676,41.9191 44.9796,41.7671 L37.8766,36.0351 L36.2246,38.8231 C35.9396,39.3041 35.3166,39.4631 34.8336,39.1791 C34.3516,38.8921 34.1926,38.2701 34.4786,37.7881 L36.7286,33.9911 C36.8786,33.7381 37.1316,33.5621 37.4216,33.5101 C37.7106,33.4591 38.0096,33.5341 38.2386,33.7191 L46.2546,40.1871 C46.6906,40.5401 46.7586,41.1791 46.4066,41.6151 C46.2066,41.8631 45.9126,41.9921 45.6166,41.9921" id="Fill-42" fill="#FEFEFE"></path>
                <path d="M15.5238,41.7109 C15.2278,41.7109 14.9338,41.5819 14.7338,41.3339 C14.3818,40.8979 14.4498,40.2589 14.8858,39.9059 L22.9018,33.4379 C23.1308,33.2529 23.4298,33.1759 23.7188,33.2289 C24.0088,33.2809 24.2618,33.4569 24.4118,33.7099 L26.6618,37.5069 C26.9478,37.9889 26.7888,38.6109 26.3068,38.8979 C25.8238,39.1819 25.2018,39.0229 24.9158,38.5419 L23.2638,35.7539 L16.1608,41.4859 C15.9728,41.6379 15.7478,41.7109 15.5238,41.7109" id="Fill-44" fill="#FEFEFE"></path>
            </g>
        </g>
    </g>
</svg>