<svg xmlns="http://www.w3.org/2000/svg" width="76" height="64" viewBox="0 0 76 64">
    <g>
        <path d="M25.204 29.365c-.642 0-1.163.417-1.163.932v3.406c0 .515.52.932 1.163.932s1.163-.417 1.163-.932v-3.406c0-.515-.52-.932-1.163-.932z"/>
        <path d="M31.761 9.848c.244-3.858-.798-6.89-2.934-8.536C27.714.454 26.327 0 24.817 0c-3.057 0-5.393 1.777-6.411 4.874-.525 1.595-.638 3.328-.534 4.974.312 4.954.446 11.518.495 16.461-.712.378-.705 1.159.013 1.53.02 2.75.02 5.553 0 8.321-.719.371-.725 1.152-.013 1.53-.168 17.097-.871 16.968-.32 20.01.716 3.945 3.247 6.3 6.77 6.3 1.51 0 2.897-.454 4.01-1.312 2.136-1.647 3.178-4.678 2.934-8.536-.314-4.98-.447-11.503-.495-16.463.712-.377.705-1.158-.013-1.53-.02-2.755-.02-5.553 0-8.32.718-.372.725-1.152.013-1.53.049-5 .182-11.489.495-16.461zM28.9 16.942l-8.424-6.201c-.07-1.232-.173-2.27.018-3.694l8.538 6.284c-.049 1.126-.093 2.334-.132 3.61zm-.07 2.6c-.029 1.223-.053 2.494-.073 3.798-2.316-1.328-5.56-1.33-7.879 0-.056-3.627-.147-6.985-.268-9.849l8.22 6.05zm-.138 16.448h-7.749v-7.982h7.749v7.982zm-.215 1.875c-.528 1.114-1.97 1.914-3.66 1.914-1.69 0-3.13-.8-3.659-1.914h7.319zm-7.319-11.732c.528-1.113 1.969-1.914 3.66-1.914 1.69 0 3.13.8 3.658 1.914h-7.318zm-.77 29.325c-.022-1.347.164-2.082.362-8.924h.977c.703 0 1.273-.42 1.273-.937 0-.518-.57-.938-1.273-.938h-.927c.031-1.287.057-2.626.078-4 2.316 1.327 5.559 1.33 7.878 0 .021 1.374.048 2.713.079 4h-1.165c-.703 0-1.273.42-1.273.938 0 .517.57.937 1.273.937h1.214c.026.9.055 1.773.086 2.606l-8.583 6.318zm4.43-53.583c.82 0 1.529.24 2.167.732 1.627 1.254 2.44 3.861 2.233 7.154l-.06 1.011-8.09-5.955c.477-1.156 1.569-2.942 3.75-2.942zm2.167 59.518c-.638.493-1.347.732-2.168.732-2.014 0-3.544-1.568-4.15-4.221l8.412-6.192c.043.903.09 1.748.139 2.527.207 3.293-.606 5.9-2.233 7.154zM7.367 34.635c.643 0 1.164-.417 1.164-.932v-3.406c0-.515-.521-.932-1.164-.932-.642 0-1.163.417-1.163.932v3.406c0 .515.52.932 1.163.932z"/>
        <path d="M.21 57.7l.001.001C.927 61.645 3.458 64 6.98 64c1.51 0 2.897-.454 4.01-1.312 2.136-1.647 3.178-4.678 2.934-8.536-.313-4.97-.446-11.483-.495-16.463.712-.377.705-1.158-.013-1.529-.02-2.73-.02-5.527 0-8.322.718-.37.725-1.151.013-1.529.049-4.99.182-11.495.495-16.461.244-3.858-.798-6.89-2.934-8.536C9.877.454 8.49 0 6.98 0 3.924 0 1.587 1.777.569 4.874.045 6.47-.069 8.202.035 9.848c.155 2.459.26 5.23.332 7.692.014.511.582.918 1.273.918.715 0 1.289-.433 1.274-.958-.042-1.424-.089-2.765-.142-4.009l8.22 6.05c-.029 1.224-.053 2.495-.073 3.799-2.316-1.328-5.559-1.33-7.878 0l-.024-1.441c-.01-.518-.588-.928-1.291-.925-.704.007-1.266.432-1.257.95.026 1.43.047 2.894.062 4.385-.713.378-.706 1.159.012 1.53.02 2.742.02 5.559 0 8.321-.718.371-.725 1.152-.013 1.53C.363 54.792-.342 54.654.21 57.7zm10.644-29.692v7.982H3.105v-7.982h7.749zM2.656 7.047l8.538 6.284c-.049 1.126-.093 2.334-.132 3.61l-8.424-6.2c-.07-1.232-.172-2.27.018-3.694zm8.263 33.611c.02 1.375.047 2.714.078 4.001H2.962c.031-1.288.058-2.626.079-4 2.315 1.327 5.558 1.33 7.878 0zM3.32 37.865h7.318c-.528 1.114-1.969 1.914-3.66 1.914-1.69 0-3.13-.8-3.658-1.914zm-.772 17.593c-.02-1.348.168-2.174.364-8.924h8.134c.026.902.055 1.774.086 2.606l-8.584 6.318zm6.599 5.935c-.639.493-1.348.732-2.168.732-2.015 0-3.545-1.568-4.152-4.221l8.413-6.192c.044.903.09 1.748.139 2.527.208 3.293-.606 5.9-2.232 7.154zM6.98 1.875c.82 0 1.529.24 2.168.732 1.626 1.254 2.44 3.861 2.232 7.154l-.06 1.011-8.09-5.955c.478-1.156 1.57-2.942 3.75-2.942zm0 22.344c1.69 0 3.13.8 3.659 1.914H3.32c.528-1.113 1.969-1.914 3.659-1.914zM55.242 8.354c-1.22-.88-4.096-1.18-5.908-1.28-.187-1.877-.963-3.709-2.272-5.344l-.635-.793c-.717-.895-2.31-1.203-3.551-.686l-3.224 1.342c-1.18.491-1.583 1.577-.902 2.427l.87 1.088c.888 1.109 1.358 2.372 1.358 3.653v3.355c0 .406.265.768.677 1V16.6c-.204.19-.325.43-.325.688V27.65c0 .258.121.497.325.687V53.8h-2.61c-1.431 0-2.596.84-2.596 1.872v1.288c0 1.032 1.165 1.872 2.596 1.872h2.61v2.662c0 1.382 1.558 2.506 3.474 2.506 1.916 0 3.475-1.124 3.475-2.506v-2.662h2.61c1.43 0 2.596-.84 2.596-1.872v-1.288c0-1.032-1.165-1.872-2.597-1.872h-2.609V28.337c.204-.19.325-.429.325-.688V17.288c0-.259-.121-.497-.325-.688v-3.432l.039-.02c1.829 1.3 4.782 1.294 6.6-.017 1.826-1.317 1.826-3.46 0-4.777zM43.93 26.904v-8.87h2.4v8.87h-2.4zm2.075-10.745h-1.75v-2.772h1.75v2.772zM41.07 3.168l3.106-1.293.635.793c0 .075 1.968 2.109 1.968 5.296v3.548h-3.2V8.761c0-1.61-.59-3.197-1.706-4.59l-.803-1.003zm4.935 58.326c0 .348-.393.63-.875.63s-.875-.282-.875-.63v-2.662h1.75v2.662zm5.21-4.537H39.048l-.004-1.282 12.165-.003.003 1.285zm-6.96-3.157V28.78h1.75V53.8h-1.75zm9.15-41.995c-.813.586-2.135.586-2.948 0-.438-.316-.814-1.581-.985-2.837 1.74.123 3.493.394 3.933.711.813.586.813 1.54 0 2.126zM58.433 58.832h2.61v2.662c0 1.382 1.558 2.506 3.474 2.506 1.916 0 3.475-1.124 3.475-2.506v-2.662h2.61c1.43 0 2.596-.84 2.596-1.872v-1.288c0-1.032-1.165-1.872-2.597-1.872h-2.609V39.628c0-.518-.582-.938-1.3-.938-.718 0-1.3.42-1.3.938V53.8h-1.75V28.78h1.75v6.474c0 .518.582.937 1.3.937.718 0 1.3-.42 1.3-.937v-6.916c.204-.19.325-.429.325-.687V17.288c0-.259-.121-.497-.325-.688v-3.432l.039-.02c1.829 1.3 4.782 1.294 6.6-.017 1.826-1.317 1.826-3.46 0-4.777-1.222-.881-4.097-1.18-5.91-1.28-.186-1.877-.962-3.709-2.271-5.344l-.635-.793c-.717-.895-2.31-1.203-3.551-.686L59.04 1.593c-1.18.491-1.583 1.577-.902 2.427l.87 1.088c.889 1.109 1.358 2.372 1.358 3.653v3.355c0 .406.265.768.676 1V16.6c-.203.19-.325.43-.325.688V27.65c0 .258.122.497.325.688V53.8h-2.609c-1.432 0-2.596.84-2.596 1.873v1.287c0 1.033 1.165 1.872 2.596 1.872zm6.96-45.445v2.772h-1.75v-2.772h1.75zm-2.076 4.647h2.4v8.87h-2.4v-8.87zm9.475-8.355c.813.586.813 1.54 0 2.126-.812.586-2.135.586-2.947 0-.439-.316-.814-1.581-.986-2.837 1.74.123 3.493.394 3.933.711zM60.458 3.168l3.106-1.293.635.793c1.287 1.608 1.968 3.44 1.968 5.296v3.548h-3.201V8.76c0-1.61-.59-3.197-1.706-4.59l-.802-1.003zm4.934 58.326c0 .348-.392.631-.875.631-.482 0-.875-.283-.875-.631v-2.662h1.75v2.662zm1.3-5.819c.362 0-1.314-.001 3.906-.002l.003 1.285H58.437l-.004-1.283c8.856-.002.514 0 8.259 0z"/>
    </g>
</svg>
