<svg xmlns="http://www.w3.org/2000/svg" width="76" height="64" viewBox="0 0 76 64">
    <g>
        <path d="M72.03 50.408c-.124-1.927-1.607-3.6-3.76-4.247V22.4l1.769.905c.605.321 1.306.492 2.022.492 1.695 0 3.184-.947 3.65-2.322.464-1.374-.209-2.843-1.648-3.597L39.95.493c-1.229-.651-2.79-.656-4.023-.01L1.772 17.886c-1.298.69-1.976 1.97-1.718 3.247.259 1.275 1.402 2.294 2.897 2.581.28.054.566.081.853.081.704.001 1.394-.167 1.99-.484l1.793-.912V46.16c-2.154.646-3.637 2.32-3.76 4.247-2.285.67-3.818 2.485-3.825 4.526.003 1.08.446 2.129 1.256 2.967-.775.38-1.253 1.077-1.256 1.832v2.134C.002 63.045 1.134 64 2.531 64h70.795c1.396 0 2.528-.955 2.528-2.133v-2.134c-.004-.755-.482-1.453-1.257-1.833.811-.838 1.254-1.885 1.257-2.966-.006-2.041-1.54-3.856-3.824-4.526zm-2.497.259c.003.107-.007.214-.029.32v.056c0 .02-.019.035-.021.054-.002.053.003.106.014.158-.013.14.024.28.104.403.028.06.063.12.105.175.05.055.105.106.166.152.054.048.114.092.177.13.073.037.15.067.23.09.054.025.11.047.168.065.03.004.06.007.091.008.014 0 .024.01.038.011 1.573.174 2.75 1.306 2.75 2.645-.011 1.468-1.42 2.657-3.161 2.666H56.259c-1.746 0-3.16-1.194-3.16-2.666-.003-.712.337-1.393.942-1.89.387-.333.876-.57 1.413-.685h.008c.122-.026.238-.068.344-.124.018-.01.027-.026.044-.035.07-.046.134-.097.192-.154.055-.044.104-.092.149-.144.04-.06.073-.121.098-.186.033-.061.06-.125.078-.19.013-.138.01-.277-.007-.415v-.05c-.023-.05-.052-.1-.085-.147-.017-.051-.04-.102-.067-.15-.382-.507-.584-1.096-.581-1.697-.005-1.538 1.29-2.86 3.082-3.146 1.792-.285 3.569.548 4.228 1.982.186.368.28.764.275 1.164 0 .562-.177 1.114-.513 1.6-.23.33-.232.739-.006 1.07.226.332.646.537 1.1.536.453-.001.871-.207 1.095-.54.556-.81.85-1.73.852-2.666-.001-.33-.04-.658-.113-.982.243-.053.494-.082.746-.085 1.745 0 3.16 1.194 3.16 2.667zm-16.435-4.8V41.6h2.529v3.228c-.805.512-1.453 1.179-1.89 1.945-.39-.184-.633-.53-.639-.906zM59.42 35.2c.697 0 1.263.478 1.263 1.067v3.2h-2.528V35.2h1.265zm0 8.533c-.425 0-.849.036-1.265.107V41.6h2.528v2.253c-.415-.076-.839-.116-1.263-.12zm-3.793-4.266h-2.529v-3.2c0-.59.566-1.067 1.265-1.067h1.264v4.267zm-51.16-17.97c-.587.307-1.356.16-1.729-.33-.372-.49-.21-1.142.364-1.464L37.256 2.296c.2-.107.434-.163.672-.163.248 0 .49.06.7.173L72.74 19.693c.38.205.602.567.58.948-.02.38-.28.723-.682.898-.401.175-.883.156-1.263-.05L38.583 4.75c-.402-.206-.907-.206-1.31 0L4.468 21.498zM37.929 6.91L65.74 21.107v24.797c-.37.036-.736.102-1.09.2-.39-.497-.875-.934-1.438-1.293v-8.544c0-1.767-1.698-3.2-3.792-3.2h-5.057c-2.095 0-3.793 1.433-3.793 3.2v9.6c.005 1.359 1.028 2.566 2.55 3.009 0 .065-.022.125-.022.19.004.58.12 1.154.344 1.701-.438.21-.84.469-1.193.771-1.932 1.614-2.232 4.158-.715 6.062h-3.492V35.2c0-2.356-2.264-4.266-5.057-4.266H32.872c-2.793 0-5.058 1.91-5.058 4.266v22.4h-3.491c.628-.788.963-1.717.963-2.666.007-1.27-.592-2.489-1.662-3.38-.359-.309-.766-.573-1.211-.786.224-.547.341-1.122.345-1.701 0-.067-.011-.127-.014-.193 1.516-.447 2.535-1.652 2.542-3.007v-9.6c0-1.767-1.698-3.2-3.792-3.2h-5.057c-2.095 0-3.793 1.433-3.793 3.2v8.553c-.556.359-1.04.79-1.432 1.28-.357-.096-.724-.162-1.096-.197V21.107L37.928 6.91zM45.513 57.6h-15.17V35.2c0-1.178 1.132-2.133 2.529-2.133h10.113c1.396 0 2.528.955 2.528 2.133v22.4zm-24.02-22.4c.699 0 1.265.478 1.265 1.067v3.2h-2.529V35.2h1.265zm.633 11.566c-.442-.761-1.092-1.423-1.897-1.93V41.6h2.529v4.267c-.007.373-.248.715-.632.9zm-4.425-7.3h-2.529v-3.2c0-.588.566-1.066 1.265-1.066H17.7v4.267zM15.172 41.6h2.529v2.261c-.835-.14-1.694-.14-2.529 0v-2.26zM5.283 52.29c.014 0 .024-.01.038-.012.03-.002.06-.006.09-.011.059-.018.116-.04.17-.065.08-.023.156-.053.227-.089.066-.04.127-.085.182-.134.06-.045.114-.094.163-.147.042-.058.078-.119.107-.182.08-.122.116-.262.102-.401.01-.051.014-.103.014-.156 0-.019-.017-.034-.021-.053-.004-.019 0-.037 0-.057-.023-.104-.033-.21-.032-.316 0-1.473 1.415-2.667 3.16-2.667.253.003.504.031.748.085-.075.324-.114.652-.115.982.002.936.295 1.855.85 2.666.35.511 1.123.686 1.728.392.606-.294.814-.947.465-1.458-.337-.485-.515-1.038-.515-1.6-.003-.411.096-.819.29-1.196.612-1.283 2.134-2.087 3.769-1.992 1.635.096 3.011 1.069 3.409 2.41.082.253.121.515.117.778.004.6-.197 1.187-.577 1.694-.028.049-.05.1-.068.151-.032.046-.06.095-.084.146v.05c-.017.138-.02.276-.008.414.02.066.046.13.079.191.025.065.058.127.099.186.044.052.093.1.148.144.058.057.122.108.192.153.017.01.026.026.044.035.106.056.222.099.344.125h.008c.544.117 1.039.359 1.43.7.595.494.928 1.172.922 1.878 0 1.472-1.415 2.666-3.16 2.666H5.69c-1.74-.01-3.15-1.198-3.16-2.666 0-1.34 1.177-2.472 2.752-2.645zm-2.752 7.443h20.227v2.134H2.53v-2.134zm22.755 2.134v-2.134H50.57v2.134H25.286zm27.812 0v-2.134h20.228v2.134H53.098z"/>
        <path d="M42.985 46.934c0 .588-.566 1.066-1.265 1.066-.697 0-1.263-.478-1.263-1.066 0-.59.566-1.067 1.263-1.067.699 0 1.265.477 1.265 1.067zM32.872 28.8h10.113c1.396 0 2.528-.955 2.528-2.133v-8.534c0-3.534-3.396-6.4-7.585-6.4s-7.585 2.866-7.585 6.4v8.534c0 1.178 1.132 2.133 2.529 2.133zm0-6.4h3.792v4.267h-3.792V22.4zm6.32 4.267V22.4h3.793v4.267h-3.793zm3.793-8.534v2.134h-3.793v-6.249c2.226.485 3.784 2.176 3.793 4.115zm-6.321-4.115v6.249h-3.792v-2.134c.008-1.94 1.566-3.63 3.792-4.115z"/>
    </g>
</svg>
